<svg height="512" width="512" xmlns="http://www.w3.org/2000/svg"><path d="M222.01 426.728H83.93c-4.122 0-7.463-3.341-7.463-7.463s3.341-7.463 7.463-7.463h138.08a7.463 7.463 0 010 14.926zm-61.66-34.917H14.287c-4.122 0-7.463-3.341-7.463-7.463s3.341-7.463 7.463-7.463H160.35a7.463 7.463 0 017.463 7.463 7.462 7.462 0 01-7.463 7.463zm-22.294-34.546H74.478c-3.587 0-6.96-1.397-9.498-3.934l-15.206-15.207H14.287c-4.122 0-7.463-3.341-7.463-7.463s3.341-7.463 7.463-7.463h36.105c3.588 0 6.961 1.397 9.498 3.933l15.207 15.208h62.959c4.122 0 7.463 3.341 7.463 7.463s-3.341 7.463-7.463 7.463zm-4.906 122.05h-29.878c-4.122 0-7.463-3.341-7.463-7.463s3.341-7.463 7.463-7.463h29.26l15.206-15.207a13.35 13.35 0 019.499-3.934h54.222c4.122 0 7.463 3.341 7.463 7.463s-3.341 7.463-7.463 7.463h-53.605l-15.205 15.206a13.355 13.355 0 01-9.499 3.935zm293.51-52.587H288.58c-4.122 0-7.463-3.341-7.463-7.463s3.341-7.463 7.463-7.463h138.08c4.122 0 7.463 3.341 7.463 7.463s-3.341 7.463-7.463 7.463zm69.643-34.917H350.24c-4.122 0-7.463-3.341-7.463-7.463s3.341-7.463 7.463-7.463h146.064a7.463 7.463 0 11-.001 14.926zm-60.191-34.546h-63.578c-4.122 0-7.463-3.341-7.463-7.463s3.341-7.463 7.463-7.463h62.959l15.207-15.208a13.347 13.347 0 019.498-3.933h36.105c4.122 0 7.463 3.341 7.463 7.463s-3.341 7.463-7.463 7.463h-35.487L445.61 353.33a13.344 13.344 0 01-9.498 3.935zm-28.794 122.05H377.44a13.347 13.347 0 01-9.496-3.932l-15.208-15.209h-53.605c-4.122 0-7.463-3.341-7.463-7.463s3.341-7.463 7.463-7.463h54.222c3.586 0 6.959 1.396 9.496 3.931l15.209 15.21h29.259c4.122 0 7.463 3.341 7.463 7.463s-3.34 7.463-7.462 7.463zm-53.965-19.142h.01z" fill="#0acefa"/><path d="M247.63 14.194c-28.558 46.648-93.447 85.264-178.019 107.468-4.109 1.079-7.098 4.653-7.386 8.891-.575 8.481-.875 17.377-.875 26.72 0 140.465 147.823 302.358 185.359 341.203 4.696 4.86 12.474 4.86 17.171 0 37.537-38.845 185.359-200.738 185.359-341.203 0-9.344-.299-18.239-.875-26.72-.288-4.238-3.277-7.812-7.386-8.891-84.571-22.204-149.46-60.82-178.018-107.468-3.524-5.755-11.807-5.755-15.33 0z" fill="#b1abb5"/><path d="M448.365 130.553c-.287-4.238-3.277-7.812-7.386-8.891a515.196 515.196 0 01-35.11-10.553c.006.941.023 1.866.023 2.816 0 140.465-147.823 302.358-185.359 341.203-2.703 2.797-6.426 3.975-9.996 3.552 15.358 17.85 28.236 31.582 36.173 39.796 4.696 4.86 12.474 4.86 17.171 0 37.537-38.845 185.36-200.738 185.36-341.203-.001-9.343-.3-18.238-.876-26.72z" fill="#786e79"/><path d="M307.747 252.842h-14.925v-43.777c0-20.692-16.835-37.527-37.527-37.527s-37.527 16.835-37.527 37.527v43.777h-14.925v-43.777c0-28.922 23.529-52.452 52.452-52.452s52.452 23.529 52.452 52.452z" fill="#def2fd"/><path d="M305.44 324.918H205.15c-10.217 0-18.5-8.283-18.5-18.5v-60.052c0-10.217 8.283-18.5 18.5-18.5h100.29c10.217 0 18.5 8.283 18.5 18.5v60.052c0 10.217-8.283 18.5-18.5 18.5z" fill="#dcf5ff"/><path d="M305.532 227.865h-4.056v56.181c0 10.166-8.241 18.408-18.408 18.408H186.65v4.056c0 10.166 8.241 18.408 18.408 18.408h100.475c10.166 0 18.408-8.241 18.408-18.408v-60.237c-.001-10.166-8.242-18.408-18.409-18.408z" fill="#97e4f9"/><path d="M271.072 272.835c0-8.807-7.418-15.881-16.346-15.315-7.555.478-13.729 6.567-14.302 14.116-.512 6.742 3.337 12.647 9.019 15.201v9.615a3.264 3.264 0 003.264 3.264h6.037a3.264 3.264 0 003.264-3.264v-9.615c5.342-2.402 9.064-7.766 9.064-14.002z" fill="#554e57"/><path d="M254.727 257.519c-.961.061-1.9.214-2.808.447 6.628 1.698 11.528 7.711 11.528 14.868 0 6.237-3.722 11.6-9.064 14.001v9.615a3.264 3.264 0 01-2.47 3.163c.255.064.52.101.795.101h6.037a3.264 3.264 0 003.264-3.264v-9.615c5.342-2.401 9.064-7.765 9.064-14.001-.001-8.806-7.418-15.88-16.346-15.315z" fill="#453e43"/><circle cx="14.286" cy="329.554" fill="#09a6ee" r="14.286"/><circle cx="14.286" cy="386.339" fill="#09a6ee" r="14.286"/><circle cx="497.714" cy="329.554" fill="#09a6ee" r="14.286"/><circle cx="83.93" cy="419.265" fill="#09a6ee" r="14.286"/><circle cx="426.944" cy="419.265" fill="#09a6ee" r="14.286"/><circle cx="407.318" cy="471.852" fill="#09a6ee" r="14.286"/><circle cx="103.272" cy="471.852" fill="#09a6ee" r="14.286"/><circle cx="497.714" cy="386.339" fill="#09a6ee" r="14.286"/><circle cx="254.665" cy="438.424" fill="#453e43" r="14.286"/><circle cx="254.665" cy="75.441" fill="#453e43" r="14.286"/><circle cx="106.359" cy="160.288" fill="#453e43" r="14.286"/><circle cx="404.231" cy="160.288" fill="#453e43" r="14.286"/></svg>