<svg xmlns="http://www.w3.org/2000/svg" width="48" height="48" viewBox="0 0 12.7 12.7"><g transform="translate(0 -284.3)"><circle r="6.35" cy="290.65" cx="6.35" fill="#ffac76"/><path d="M6.293 284.303a6.35 6.35 0 00-.082.003v2.26l-3.02 2.717a.25.25 0 00-.131.27.25.25 0 00.314.202h2.962v2.144a.25.25 0 00.19.325c.033.008.067.01.1.004h2.577l-2.642 2.374a.25.25 0 00-.098.224v2.17a6.35 6.35 0 00.5-.036v-2.046l3.035-2.73a.25.25 0 00.108-.221v-.004a.252.252 0 00-.002-.021l-.003-.014a.25.25 0 00-.263-.199l-.013.002h-2.99v-2.18a.25.25 0 00-.056-.204l-.001-.002-.005-.005a.25.25 0 00-.231-.08H3.968l2.627-2.363a.25.25 0 00.107-.147l.001-.003a.25.25 0 00.008-.091v-2.329a6.35 6.35 0 00-.418-.02z" fill="#ff924b"/><path d="M5.98 284.31a6.35 6.35 0 00-5.975 6.337 6.35 6.35 0 006.227 6.343v-2.258a.252.252 0 01.098-.225l2.642-2.374H6.396a.263.263 0 01-.101-.004c-.004 0-.007-.002-.01-.003a.25.25 0 01-.18-.322v-2.144H3.143a.25.25 0 01-.314-.202.25.25 0 01.13-.27l3.021-2.716z" fill="#999"/><path d="M6.35 284.3a6.35 6.35 0 00-.37.013v2.165l-3.02 2.716a.25.25 0 00-.131.27.25.25 0 00.314.203h2.962v2.144a.25.25 0 00.18.322.25.25 0 00.01.003.25.25 0 00.1.004h2.577l-2.642 2.374a.25.25 0 00-.083.111.25.25 0 00-.015.113v2.256a6.35 6.35 0 00.118.006 6.35 6.35 0 00.382-.013v-2.161l3.035-2.73a.25.25 0 00.108-.196.25.25 0 000-.002.25.25 0 000-.023.25.25 0 000-.004.25.25 0 00-.002-.021.25.25 0 00-.003-.014.25.25 0 00-.263-.199.25.25 0 00-.013.002h-2.99v-2.18a.25.25 0 00-.055-.204.25.25 0 00-.002-.002.25.25 0 00-.005-.005.25.25 0 00-.19-.085.25.25 0 00-.041.004H3.737l2.627-2.362a.25.25 0 00.108-.147.25.25 0 000-.003.25.25 0 00.005-.022.25.25 0 00.003-.07v-2.257a6.35 6.35 0 00-.13-.006z" fill="#fff"/></g></svg>