<svg width="26" height="24" xmlns="http://www.w3.org/2000/svg"><path fill="none" d="M-1-1h28v26H-1z"/><g stroke="null" fill="#fff"><path d="M20.357 11.752v.946a.39.39 0 01-.387.388h-1.496a.39.39 0 01-.388-.388v-.36l-5.05 1.306-4.884-1.261v.315a.39.39 0 01-.387.388H6.269a.39.39 0 01-.387-.388v-.9l-3.645-.97v7.628c0 1.1.919 2.045 2.149 2.045h17.296c1.23 0 2.135-.95 2.135-2.045V10.83l-3.46.923z"/><path d="M21.686 21.574H4.39c-1.23 0-2.144-.496-2.144-1.595v1.158c0 1.099.919 1.923 2.149 1.923H21.69c1.23 0 2.135-.828 2.135-1.928v-1.158c0 1.1-.914 1.6-2.14 1.6zm.469-16.197H3.827c-1.302 0-2.365.95-2.365 2.118v2.117l4.384 1.136v-.537a.39.39 0 01.387-.387H7.73a.39.39 0 01.387.387v1.122L13 12.595l5.055-1.307v-1.077a.39.39 0 01.387-.387h1.496a.39.39 0 01.388.387v.491l4.212-1.09V7.495c-.013-1.167-1.081-2.118-2.383-2.118zM8.562 4.634v-.928c0-.838.685-1.528 1.528-1.528h5.888c.838 0 1.527.685 1.527 1.528v.928h1.564v-1.5c0-1.221-.946-2.194-2.167-2.194H9.184c-1.22 0-2.185.964-2.185 2.185v1.5l1.563.009z"/></g></svg>