<svg width="24" height="24" xmlns="http://www.w3.org/2000/svg"><path fill="none" d="M-1-1h26v26H-1z"/><path fill="#fff" stroke="null" d="M17.929.8H1.085l.431 2.462a6.384 6.384 0 005.041 5.167 5.889 5.889 0 003.326 3.16 1.777 1.777 0 001.4 1.592v3.382a1.777 1.777 0 00-1.4 1.683H7.741a.694.694 0 00-.695.694v4.26h9.908v-3.772c0-.653-.53-1.182-1.183-1.182h-1.655a1.777 1.777 0 00-1.398-1.683V13.18a1.777 1.777 0 001.387-1.586 5.888 5.888 0 003.338-3.163 6.384 6.384 0 005.04-5.168L22.916.8H17.93h0zm-3.685 20.496c0 .24-.194.434-.434.434h-3.62a.434.434 0 01-.434-.434v-1.227c0-.24.194-.435.434-.435h3.62c.24 0 .434.195.434.435v1.227zM2.574 3.076l-.21-1.202H6.07V6.09c0 .388.038.768.11 1.135a5.314 5.314 0 01-3.607-4.15zm11.982 1.732l-.917.893a.328.328 0 00-.094.29l.216 1.261a.328.328 0 01-.476.346l-1.132-.595a.328.328 0 00-.306 0l-1.132.595a.328.328 0 01-.476-.346l.216-1.26a.328.328 0 00-.094-.291l-.917-.893a.328.328 0 01.182-.56l1.266-.184a.328.328 0 00.248-.18l.566-1.147a.328.328 0 01.588 0l.567 1.148a.33.33 0 00.247.18l1.266.183c.269.04.376.37.182.56zm6.87-1.731a5.314 5.314 0 01-3.607 4.149c.072-.367.11-.747.11-1.135V1.874h3.708l-.21 1.203z"/></svg>